<?xml version="1.0" encoding="utf-8"?>
<!-- Generator: Adobe Illustrator 14.0.0, SVG Export Plug-In . SVG Version: 6.00 Build 43363)  -->
<!DOCTYPE svg PUBLIC "-//W3C//DTD SVG 1.1//EN" "http://www.w3.org/Graphics/SVG/1.1/DTD/svg11.dtd">
<svg version="1.1" id="Capa_1" xmlns="http://www.w3.org/2000/svg" xmlns:xlink="http://www.w3.org/1999/xlink" x="0px" y="0px"
	 width="200px" height="200px" viewBox="0 0 200 200" enable-background="new 0 0 200 200" xml:space="preserve">
<g>
	<path fill="#73C435" d="M100.062,3.643c-52.915,0-95.97,43.044-95.97,95.969c0,52.913,43.056,95.957,95.97,95.957
		c52.913,0,95.969-43.044,95.969-95.957C196.031,46.687,152.976,3.643,100.062,3.643z M175.443,98.355
		c0,41.332-33.581,74.837-75.005,74.837c-41.423,0-75.004-33.506-75.004-74.837c0-41.331,33.581-74.837,75.004-74.837
		C141.862,23.518,175.443,57.024,175.443,98.355z"/>
	<path fill="#73C435" d="M99.611,102.979c0,0-0.028,0-0.044,0c-0.028,0-0.028,0-0.059,0c-22.62,0-41.229-18.109-39.55-39.69
		c18.878-3.334,38.471,7.623,39.608,26.182c0.913-16.734,17.713-29.174,39.64-26.182C140.622,85.126,122.466,102.808,99.611,102.979
		z"/>
	<path fill="#73C435" d="M134.543,124.029c-13.261-0.796-27.979,5.254-34.757,17.085c-6.829-12.011-21.131-17.593-35.981-17.044
		c-4.616-8.397-4.513-16.139-4.262-19.469c19.587-2.843,38.667,7.803,39.625,26.195c0.897-16.26,17.021-29.191,39.608-26.195
		C139.026,107.904,139.13,115.659,134.543,124.029z"/>
</g>
</svg>
