<?xml version="1.0" encoding="utf-8"?>
<!-- Generator: Adobe Illustrator 14.0.0, SVG Export Plug-In . SVG Version: 6.00 Build 43363)  -->
<!DOCTYPE svg PUBLIC "-//W3C//DTD SVG 1.1//EN" "http://www.w3.org/Graphics/SVG/1.1/DTD/svg11.dtd">
<svg version="1.1" id="Capa_1" xmlns="http://www.w3.org/2000/svg" xmlns:xlink="http://www.w3.org/1999/xlink" x="0px" y="0px"
	 width="200px" height="200px" viewBox="0 0 200 200" enable-background="new 0 0 200 200" xml:space="preserve">
<g>
	<g>
		<g>
			<g>
				<g>
					<path fill="#73C435" d="M99.114,4.076C46.018,4.843,3.438,48.662,4.206,101.759c0.767,53.085,44.586,95.663,97.683,94.897
						c53.085-0.768,95.664-44.575,94.896-97.672S152.199,3.308,99.114,4.076z M122.818,83.06l3.919-4.155h9.81l23.172-23.845
						l2.125,3.081c8.383,12.159,12.926,26.383,13.139,41.151c0.602,41.08-32.333,74.97-73.412,75.574
						c-14.768,0.213-29.123-3.932-41.506-11.959l-3.151-2.042l25.191-25.475H51.271l-9.987,10.282l-2.125-3.081
						c-8.393-12.147-12.938-26.384-13.15-41.151c-0.59-41.068,32.344-74.97,73.412-75.561c14.78-0.213,29.134,3.919,41.517,11.958
						l3.141,2.03l-21.26,22.193V83.06z"/>
				</g>
			</g>
		</g>
	</g>
	<g>
		<g>
			<rect x="116.727" y="96.199" fill="#73C435" width="26.561" height="26.561"/>
		</g>
	</g>
	<g>
		<g>
			<polygon fill="#73C435" points="112.844,93.684 112.844,116.904 102.525,127.516 102.526,85.327 118.688,68.352 118.688,87.322 
							"/>
		</g>
	</g>
	<g>
		<g>
			<polygon fill="#73C435" points="156.319,110.211 147.43,119.371 147.076,94.912 155.965,85.787 			"/>
		</g>
	</g>
	<g>
		<g>
			<polygon fill="#73C435" points="144.09,92.351 119.619,92.351 128.52,82.859 152.955,82.859 			"/>
		</g>
	</g>
	<g>
		<g>
			<g>
				<rect x="54.469" y="87.227" fill="#73C435" width="43.925" height="43.299"/>
			</g>
		</g>
		<g>
			<g>
				<polygon fill="#73C435" points="115.428,65.424 98.937,83.013 56.724,83.013 73.215,65.424 				"/>
			</g>
		</g>
	</g>
</g>
</svg>
