<?xml version="1.0" encoding="utf-8"?>
<!-- Generator: Adobe Illustrator 14.0.0, SVG Export Plug-In . SVG Version: 6.00 Build 43363)  -->
<!DOCTYPE svg PUBLIC "-//W3C//DTD SVG 1.1//EN" "http://www.w3.org/Graphics/SVG/1.1/DTD/svg11.dtd">
<svg version="1.1" id="Capa_1" xmlns="http://www.w3.org/2000/svg" xmlns:xlink="http://www.w3.org/1999/xlink" x="0px" y="0px"
	 width="200px" height="200px" viewBox="0 0 200 200" enable-background="new 0 0 200 200" xml:space="preserve">
<g>
	<path fill="#73C435" d="M101.742,6.128c-51.809,0-93.965,42.145-93.965,93.965c0,51.809,42.157,93.953,93.965,93.953
		s93.965-42.145,93.965-93.953C195.707,48.273,153.551,6.128,101.742,6.128z M175.549,98.862c0,40.468-32.879,73.273-73.438,73.273
		c-40.558,0-73.438-32.806-73.438-73.273c0-40.468,32.879-73.274,73.438-73.274C142.67,25.588,175.549,58.394,175.549,98.862z"/>
	<path fill="#73C435" d="M105.539,145.151c0,0,61.704-33.963,35.404-72.802c-12.848-18.97-37.99-7.123-37.99-7.123
		S56.195,53.751,52.141,92.77C48.342,129.335,105.539,145.151,105.539,145.151z"/>
	<path fill="#FFFFFF" d="M72.762,123.598c-0.772-0.689-0.844-1.861-0.164-2.63c0.215-0.249,0.478-0.423,0.766-0.525
		c0.621-0.221,1.334-0.1,1.863,0.362l7.903,6.995c0.769,0.679,0.844,1.859,0.164,2.628c-0.68,0.77-1.859,0.844-2.628,0.164
		L72.762,123.598z"/>
	<path fill="#FFFFFF" d="M73.92,70.042c1.404-0.477,2.869-0.849,4.346-1.072c6.477-0.981,12.947,0.64,18.243,4.555
		c0.981,0.738,1.191,2.122,0.471,3.105c-0.732,0.986-2.108,1.194-3.088,0.468c-4.342-3.209-9.648-4.546-14.961-3.741
		c-1.219,0.185-2.41,0.48-3.562,0.885c-9.177,3.174-14.769,12.491-13.304,22.154c0.232,1.531,1.299,4.648,5.111,10.85
		c0.638,1.043,0.318,2.403-0.718,3.044c-1.044,0.653-2.4,0.317-3.039-0.726c-3.417-5.559-5.284-9.648-5.717-12.506
		C55.918,85.279,62.734,73.923,73.92,70.042z"/>
</g>
</svg>
